<?xml version="1.0" standalone="no"?>
<!DOCTYPE svg PUBLIC "-//W3C//DTD SVG 20010904//EN"
 "https://www.w3.org/TR/2001/REC-SVG-20010904/DTD/svg10.dtd">
<svg version="1.0" xmlns="https://www.w3.org/2000/svg"
 width="260.000000pt" height="260.000000pt" viewBox="0 0 260.000000 260.000000"
 preserveAspectRatio="xMidYMid meet">
<metadata>
Created by potrace 1.11, written by Peter Selinger 2001-2013
</metadata>
<g transform="translate(0.000000,260.000000) scale(0.100000,-0.100000)"
fill="#000000" stroke="none">
<path d="M1352 2555 c-32 -14 -136 -114 -128 -123 3 -2 -6 -21 -19 -42 -13
-21 -22 -40 -19 -43 3 -3 -1 -18 -9 -34 -8 -15 -18 -48 -23 -73 -4 -25 -9 -48
-10 -52 -1 -5 -2 -17 -3 -28 -1 -20 -43 -45 -67 -41 -14 2 -146 -45 -194 -69
-19 -10 -39 -19 -45 -20 -5 -1 -17 -7 -25 -15 -8 -7 -29 -20 -47 -29 -18 -9
-43 -26 -57 -38 -14 -13 -39 -34 -56 -47 -42 -33 -116 -108 -149 -151 -14 -19
-28 -37 -31 -40 -50 -46 -182 -344 -162 -364 3 -3 0 -6 -7 -6 -7 0 -10 -4 -7
-8 3 -5 -1 -33 -7 -63 -7 -30 -13 -101 -12 -159 0 -80 -4 -108 -15 -120 -88
-91 -169 -203 -207 -286 -10 -21 -20 -41 -23 -44 -3 -3 -6 -12 -7 -20 -1 -8
-6 -31 -11 -50 -25 -100 9 -196 87 -246 43 -27 52 -29 141 -28 91 2 117 5 150
17 78 29 110 39 116 37 4 -1 10 3 14 10 4 7 29 -10 67 -48 65 -62 73 -69 173
-136 92 -61 241 -124 335 -141 46 -9 66 -13 98 -20 30 -8 212 -7 267 0 25 4
56 8 70 10 14 2 25 4 25 5 0 1 9 3 19 5 11 2 31 7 45 10 14 4 26 5 27 3 0 -2
7 2 15 8 8 6 32 17 54 24 50 15 200 95 228 121 19 17 62 19 87 4 4 -2 20 -7
36 -9 28 -6 49 -10 97 -21 31 -8 197 -8 227 0 14 3 36 8 50 11 29 6 90 42 108
64 39 47 54 94 49 151 -8 86 -56 168 -160 271 l-87 87 14 62 c8 34 13 66 10
71 -3 4 -2 8 3 8 4 0 10 24 12 53 20 274 -37 502 -181 717 -55 81 -177 207
-249 255 -24 16 -46 33 -49 36 -3 4 -28 19 -57 33 -49 26 -73 61 -58 86 3 4 2
10 -3 12 -4 1 -16 32 -25 68 -44 160 -149 320 -244 369 -49 25 -122 27 -171 6z
m161 -159 c46 -51 52 -59 75 -106 19 -40 44 -101 43 -107 0 -2 6 -18 14 -37
12 -28 12 -35 1 -39 -7 -3 -17 -2 -22 3 -19 17 -157 37 -288 40 l-68 2 7 32
c3 17 8 40 11 51 10 52 53 143 78 170 49 52 97 49 149 -9z m-63 -380 c49 -6
71 -10 118 -23 6 -1 18 -4 25 -6 6 -1 17 -5 22 -9 6 -3 24 -9 41 -12 28 -6 32
-12 41 -62 9 -48 8 -58 -8 -77 -10 -12 -18 -19 -19 -15 0 7 -41 -7 -115 -37
-11 -5 -22 -9 -25 -10 -15 -5 -49 -19 -75 -30 -16 -8 -55 -23 -85 -35 -30 -12
-65 -28 -77 -36 -13 -8 -23 -12 -23 -10 0 4 -176 -78 -221 -104 -9 -5 -52 -28
-95 -51 -44 -23 -82 -47 -85 -52 -3 -5 -9 -8 -13 -7 -9 1 -147 -84 -213 -132
-29 -21 -53 -35 -53 -31 0 4 -6 0 -12 -8 -7 -9 -42 -38 -78 -65 -36 -27 -69
-55 -73 -61 -35 -55 -29 72 9 204 82 284 287 508 562 613 39 16 72 26 72 24 0
-3 8 0 18 5 11 6 39 13 63 16 73 10 78 11 83 16 6 6 148 3 216 -5z m539 -266
c65 -64 76 -77 128 -155 30 -45 83 -148 88 -173 2 -10 11 -37 20 -61 18 -49
29 -109 30 -158 0 -18 3 -33 6 -33 4 0 5 -44 3 -97 -3 -54 -5 -113 -6 -130 -1
-18 -6 -33 -11 -33 -6 0 -8 -3 -5 -6 7 -7 -21 -115 -33 -130 -5 -7 -9 -16 -7
-20 3 -11 -53 -121 -96 -188 -50 -78 -145 -176 -171 -176 -12 0 -25 3 -29 7
-4 5 -11 8 -14 8 -4 1 -29 11 -56 23 -27 12 -51 22 -55 22 -3 0 -20 9 -37 19
-31 19 -32 20 -21 68 6 26 13 50 16 53 4 3 7 14 7 25 2 31 11 85 22 135 6 25
14 65 18 90 3 25 8 56 11 70 12 76 26 199 25 223 0 9 2 17 6 17 4 0 8 35 10
78 4 123 4 532 -1 594 l-4 57 45 -32 c25 -18 75 -61 111 -97z m-273 -114 c0
-29 4 -58 8 -64 3 -6 2 -14 -4 -17 -7 -4 -7 -12 -2 -18 7 -11 9 -32 2 -39 -1
-2 -3 -57 -5 -123 -2 -66 -4 -120 -5 -120 -1 0 -3 -18 -5 -40 -1 -22 -5 -62
-8 -90 -4 -27 -10 -72 -13 -100 -3 -27 -8 -59 -10 -70 -2 -10 -6 -37 -9 -60
-6 -41 -11 -71 -21 -115 -3 -14 -7 -36 -9 -50 -2 -14 -6 -36 -9 -50 -3 -14
-11 -49 -17 -77 -6 -29 -13 -53 -17 -53 -4 0 -33 16 -65 35 -32 19 -62 35 -67
35 -4 0 -10 3 -12 8 -1 4 -63 47 -135 96 -73 48 -133 92 -133 97 0 5 -5 9 -11
9 -8 0 -86 57 -109 80 -3 3 -39 32 -79 65 -41 33 -87 71 -101 85 -14 14 -54
49 -89 79 -34 30 -61 61 -59 69 3 12 54 49 98 69 8 3 17 10 20 13 13 19 360
203 360 192 0 -4 4 -2 8 4 8 11 31 22 207 100 22 9 44 16 49 15 5 -1 12 2 15
6 3 5 29 17 56 27 46 17 69 26 135 53 14 6 27 9 30 6 2 -2 5 -28 6 -57z m-972
-626 c80 -72 78 -70 201 -171 143 -117 439 -329 459 -329 3 0 32 -17 63 -37
53 -34 308 -164 343 -175 10 -3 -1 -13 -30 -28 -25 -13 -47 -25 -50 -25 -3 -1
-23 -10 -45 -20 -22 -9 -47 -19 -55 -20 -8 -2 -16 -4 -17 -5 -2 -2 -7 -4 -13
-5 -5 -1 -11 -3 -12 -5 -6 -4 -66 -17 -123 -26 -22 -3 -83 -6 -135 -6 -98 0
-153 7 -235 26 -39 10 -137 47 -151 58 -6 4 -14 5 -17 1 -4 -3 -7 -1 -7 5 0 7
-6 12 -13 12 -38 0 -234 156 -298 237 -98 123 -174 287 -193 418 -7 48 -8 46
74 115 36 30 67 57 70 60 3 3 16 13 30 21 24 16 26 16 70 -24 25 -23 63 -57
84 -77z m-436 -192 c5 -39 9 -55 20 -75 7 -13 10 -23 8 -23 -8 0 96 -204 106
-208 22 -9 -3 -32 -44 -41 -4 -1 -26 -8 -48 -16 -22 -8 -40 -12 -40 -10 0 2
-13 0 -30 -5 -21 -6 -30 -5 -30 3 0 9 -2 9 -8 1 -15 -23 -88 6 -104 41 -9 19
-9 38 0 76 14 59 54 146 79 174 10 11 29 37 42 58 22 37 46 49 49 25z m2063
-239 c124 -129 129 -231 14 -256 -45 -10 -250 -4 -250 7 0 1 -8 3 -18 5 -28 5
-28 7 6 47 50 56 59 69 100 130 21 32 45 74 53 93 8 19 19 35 25 35 7 0 38
-27 70 -61z"/>
</g>
</svg>
